# Blender v2.92.0 OBJ File: ''
# www.blender.org
mtllib Evidence_Marker.mtl
o Plane
v -1.000000 0.000000 1.131374
v 1.000000 0.000000 1.131374
v 1.000000 0.000000 -1.131374
v -1.000000 0.000000 -1.131374
v 1.000000 2.000000 0.000000
v -1.000000 2.000000 0.000000
v -1.000000 0.000000 1.014426
v 1.000000 0.000000 1.014426
v 1.000000 0.000000 -1.014426
v -1.000000 0.000000 -1.014426
v 1.000000 1.823303 0.000000
v -1.000000 1.823303 0.000000
vt 0.000000 0.000000
vt 1.000000 0.000000
vt 1.000000 1.000000
vt 0.000000 1.000000
vt 0.000000 0.000000
vt 1.000000 0.000000
vt 1.000000 1.000000
vt 0.000000 1.000000
vt 0.000000 0.000000
vt 0.000000 1.000000
vt 1.000000 1.000000
vt 1.000000 0.000000
vt 0.000000 0.000000
vt 0.000000 1.000000
vt 1.000000 1.000000
vt 1.000000 0.000000
vn 0.0000 0.4924 0.8704
vn 0.0000 0.4924 -0.8704
vn 0.0000 -0.4862 -0.8739
vn 0.0000 -0.4862 0.8739
vn 0.0000 -1.0000 0.0000
vn 1.0000 0.0000 0.0000
vn -1.0000 0.0000 0.0000
usemtl None
s off
f 1/1/1 2/2/1 5/3/1 6/4/1
f 3/5/2 4/6/2 6/7/2 5/8/2
f 7/9/3 12/10/3 11/11/3 8/12/3
f 9/13/4 11/14/4 12/15/4 10/16/4
f 2/2/5 1/1/5 7/9/5 8/12/5
f 3/5/6 5/8/6 11/14/6 9/13/6
f 4/6/5 3/5/5 9/13/5 10/16/5
f 6/7/7 4/6/7 10/16/7 12/15/7
f 1/1/7 6/4/7 12/10/7 7/9/7
f 5/3/6 2/2/6 8/12/6 11/11/6
